<svg xmlns="http://www.w3.org/2000/svg" width="16" height="16" fill="none" viewBox="0 0 16 16"><path fill="#57585a" d="M4.5 7.5a.5.5 0 0 1 0 1h-4a.5.5 0 0 1 0-1z"/><path fill="#57585a" d="M9.027.519A7.5 7.5 0 0 1 16 8.02a7.502 7.502 0 0 1-10.67 6.777.5.5 0 0 1 .423-.907 6.5 6.5 0 0 0 8.456-8.997 6.5 6.5 0 0 0-8.423-2.798.5.5 0 0 1-.418-.91A7.5 7.5 0 0 1 9.027.519"/><path fill="#57585a" d="M5.656 4.5c.22 0 .4.224.4.5s-.18.5-.4.5h-3.2c-.221 0-.4-.224-.4-.5s.179-.5.4-.5zM5.656 10.5c.22 0 .4.224.4.5s-.18.5-.4.5h-3.2c-.221 0-.4-.224-.4-.5s.179-.5.4-.5zM9.5 4.5c.276 0 .5.217.5.484V7.5h2.516c.267 0 .484.224.484.5s-.217.5-.484.5H9.484a.47.47 0 0 1-.326-.133l-.012-.009-.004-.004-.01-.013A.47.47 0 0 1 9 8.016V4.984c0-.267.224-.484.5-.484"/></svg>