<svg width="32" height="32" viewBox="0 0 32 32" fill="none" xmlns="http://www.w3.org/2000/svg">
<path d="M24.29 9.704C25.3504 9.704 26.21 8.84439 26.21 7.784C26.21 6.72361 25.3504 5.864 24.29 5.864C23.2296 5.864 22.37 6.72361 22.37 7.784C22.37 8.84439 23.2296 9.704 24.29 9.704Z" fill="#57585A"/>
<path fill-rule="evenodd" clip-rule="evenodd" d="M8 16C8 20.412 11.588 24 16 24C20.412 24 24 20.412 24 16C24 11.588 20.412 8 16 8C11.588 8 8 11.588 8 16ZM12 16C12 13.794 13.794 12 16 12C18.206 12 20 13.794 20 16C20 18.206 18.206 20 16 20C13.794 20 12 18.206 12 16Z" fill="#57585A"/>
<path fill-rule="evenodd" clip-rule="evenodd" d="M32 24C32 28.112 28.112 32 24 32H8C3.888 32 0 28.112 0 24V8C0 3.888 3.888 0 8 0H24C28.112 0 32 3.888 32 8V24ZM8 4C6.13 4 4 6.13 4 8V24C4 25.906 6.094 28 8 28H24C25.87 28 28 25.87 28 24V8C28 6.13 25.87 4 24 4H8Z" fill="#57585A"/>
</svg>
