<svg width="16" height="16" viewBox="0 0 16 16" fill="none" xmlns="http://www.w3.org/2000/svg">
<path fill-rule="evenodd" clip-rule="evenodd" d="M8 16C3.58172 16 0 12.4183 0 8C0 3.58172 3.58172 0 8 0C12.4183 0 16 3.58172 16 8C16 12.4183 12.4183 16 8 16ZM11.1464 5.14645C11.3417 4.95118 11.6583 4.95118 11.8536 5.14645C12.0488 5.34171 12.0488 5.65829 11.8536 5.85355L7.35355 10.3536C7.15829 10.5488 6.84171 10.5488 6.64645 10.3536L4.14645 7.85355C3.95118 7.65829 3.95118 7.34171 4.14645 7.14645C4.34171 6.95118 4.65829 6.95118 4.85355 7.14645L7 9.29289L11.1464 5.14645ZM15 8C15 11.866 11.866 15 8 15C4.13401 15 1 11.866 1 8C1 4.13401 4.13401 1 8 1C11.866 1 15 4.13401 15 8Z" fill="#57585A"/>
</svg>
